# xmcd CD database file generated by Grip 3.3.1
# 
# Track frame offsets:
#       150
#       17537
#       34575
#       49590
#       66515
#       82855
#       91325
#       105782
#       121117
#       144227
#       160800
# 
# Disc length: 2208 seconds
# 
# Revision: 3
# Processed by: cddbd v1.5.2PL0 Copyright (c) Steve Scherf et al.
# Submitted via: Grip 3.3.1
# 
DISCID=75089e0b
DTITLE=Cat Stevens - Tea For The Tillerman
DYEAR=1970
DGENRE=Pop
TTITLE0=Where Do The Children Play?
TTITLE1=Hard Headed Woman
TTITLE2=Wild World
TTITLE3=Sad Lisa
TTITLE4=Miles From Nowhere
TTITLE5=But I Might Die Tonight
TTITLE6=Longer Boats
TTITLE7=Into White
TTITLE8=On The Road To Find Out
TTITLE9=Father And Son
TTITLE10=Tea For The Tillerman
EXTD=ID3G:   0
EXTT0=
EXTT1=
EXTT2=
EXTT3=
EXTT4=
EXTT5=
EXTT6=
EXTT7=
EXTT8=
EXTT9=
EXTT10=
PLAYORDER=
